<svg width="40" height="40" viewBox="0 0 40 40" fill="none" xmlns="http://www.w3.org/2000/svg">
<path fill-rule="evenodd" clip-rule="evenodd" d="M39.1667 15C39.1667 7.63619 33.1971 1.66666 25.8333 1.66666L25.5424 1.66979C20.1244 1.7867 15.3859 5.16171 13.4366 10.0831L13.3342 10.3467L13.1977 10.308C12.4335 10.1045 11.6403 9.99999 10.8333 9.99999C5.77071 9.99999 1.66666 14.104 1.66666 19.1667C1.66666 22.8636 3.87568 26.1547 7.21358 27.5907C7.63635 27.7726 8.12652 27.5773 8.3084 27.1545C8.49029 26.7317 8.295 26.2416 7.87223 26.0597C5.14073 24.8846 3.33332 22.1918 3.33332 19.1667C3.33332 15.0245 6.69119 11.6667 10.8333 11.6667C11.7781 11.6667 12.6974 11.841 13.5576 12.1765C14.011 12.3534 14.5188 12.1058 14.6587 11.6397C16.1263 6.74804 20.6468 3.33332 25.8333 3.33332C32.2766 3.33332 37.5 8.55667 37.5 15C37.5 19.2198 35.2415 23.0449 31.6516 25.1147C31.2529 25.3446 31.116 25.8542 31.3459 26.2529C31.5758 26.6516 32.0854 26.7885 32.4841 26.5586C36.585 24.1941 39.1667 19.8217 39.1667 15ZM24.5474 7.49999C24.5474 7.03975 24.9205 6.66666 25.3808 6.66666C29.4145 6.66666 32.9387 9.29539 34.1282 13.0853C34.266 13.5245 34.0218 13.9922 33.5826 14.13C33.1435 14.2678 32.6758 14.0236 32.538 13.5844C31.565 10.4845 28.6811 8.33332 25.3808 8.33332C24.9205 8.33332 24.5474 7.96023 24.5474 7.49999ZM34.5833 15.8333C34.5833 16.2936 34.2102 16.6667 33.75 16.6667C33.2898 16.6667 32.9167 16.2936 32.9167 15.8333C32.9167 15.3731 33.2898 15 33.75 15C34.2102 15 34.5833 15.3731 34.5833 15.8333ZM25 13.9583L28.54 14.4008C29.3741 14.5051 30 15.2141 30 16.0546V28.3031C30 30.5808 28.8372 32.7008 26.9165 33.925L20.8958 37.7624C20.3494 38.1106 19.6506 38.1106 19.1042 37.7624L13.0835 33.925C11.1628 32.7008 9.99999 30.5808 9.99999 28.3031V16.0546C9.99999 15.2141 10.6259 14.5051 11.4599 14.4008L15 13.9583C18.3204 13.5433 21.6796 13.5433 25 13.9583ZM24.7933 15.6121C21.8223 15.2408 18.8191 15.216 15.8438 15.5378L15.2067 15.6121L11.6667 16.0546V28.3031C11.6667 29.9402 12.4676 31.4687 13.8022 32.4013L13.9793 32.5195L20 36.3569L26.0207 32.5195C27.4012 31.6397 28.2597 30.1427 28.3288 28.516L28.3333 28.3031V16.0546L24.7933 15.6121ZM21.4941 23.1607C21.8195 22.8353 22.3471 22.8353 22.6726 23.1607C22.973 23.4611 22.9961 23.9338 22.7419 24.2607L22.6726 24.3392L19.7559 27.2559C19.4555 27.5563 18.9828 27.5794 18.6559 27.3252L18.5774 27.2559L16.9107 25.5892C16.5853 25.2638 16.5853 24.7362 16.9107 24.4107C17.2111 24.1103 17.6838 24.0872 18.0107 24.3414L18.0892 24.4107L19.1667 25.4875L21.4941 23.1607ZM20 18.3333C16.3181 18.3333 13.3333 21.3181 13.3333 25C13.3333 28.6819 16.3181 31.6667 20 31.6667C23.6819 31.6667 26.6667 28.6819 26.6667 25C26.6667 21.3181 23.6819 18.3333 20 18.3333ZM20 20C22.7614 20 25 22.2386 25 25C25 27.7614 22.7614 30 20 30C17.2386 30 15 27.7614 15 25C15 22.2386 17.2386 20 20 20Z" fill="#f5fcff"/>
</svg>
