<svg width="40" height="40" viewBox="0 0 40 40" fill="none" xmlns="http://www.w3.org/2000/svg">
<path fill-rule="evenodd" clip-rule="evenodd" d="M19.5833 17.5C17.9725 17.5 16.6667 18.8059 16.6667 20.4167C16.6667 22.0275 17.9725 23.3334 19.5833 23.3334C21.1942 23.3334 22.5 22.0275 22.5 20.4167C22.5 18.8059 21.1942 17.5 19.5833 17.5ZM19.5833 19.1667C20.2737 19.1667 20.8333 19.7263 20.8333 20.4167C20.8333 21.107 20.2737 21.6667 19.5833 21.6667C18.893 21.6667 18.3333 21.107 18.3333 20.4167C18.3333 19.7263 18.893 19.1667 19.5833 19.1667Z" fill="#f5fcff"/>
<path d="M7.50001 11.6667C7.96025 11.6667 8.33334 11.2936 8.33334 10.8334C8.33334 10.3731 7.96025 10 7.50001 10C7.03977 10 6.66668 10.3731 6.66668 10.8334C6.66668 11.2936 7.03977 11.6667 7.50001 11.6667Z" fill="#f5fcff"/>
<path fill-rule="evenodd" clip-rule="evenodd" d="M16.6667 4.58335C16.6667 2.97252 17.9725 1.66669 19.5833 1.66669C21.1942 1.66669 22.5 2.97252 22.5 4.58335C22.5 5.90461 21.6215 7.02068 20.4167 7.37924V14.2218C21.7592 14.4006 22.967 15.0057 23.8996 15.8965L28.707 12.0505C28.4676 11.5567 28.3333 11.0024 28.3333 10.4167C28.3333 8.34562 30.0123 6.66669 32.0833 6.66669C34.1544 6.66669 35.8333 8.34562 35.8333 10.4167C35.8333 12.4878 34.1544 14.1667 32.0833 14.1667C31.2007 14.1667 30.3893 13.8618 29.7488 13.3515L24.9415 17.1973C25.5077 18.1376 25.8333 19.2391 25.8333 20.4167C25.8333 20.5579 25.8287 20.6981 25.8194 20.837L32.0864 22.5462C32.6559 21.5244 33.7472 20.8334 35 20.8334C36.841 20.8334 38.3333 22.3257 38.3333 24.1667C38.3333 26.0076 36.841 27.5 35 27.5C33.1591 27.5 31.6667 26.0076 31.6667 24.1667L31.6667 24.1592L25.4869 22.4738C25.0309 23.7826 24.152 24.8931 23.0139 25.6419L27.5753 33.3612C27.6864 33.3429 27.8004 33.3334 27.9167 33.3334C29.0673 33.3334 30 34.2661 30 35.4167C30 36.5673 29.0673 37.5 27.9167 37.5C26.7661 37.5 25.8333 36.5673 25.8333 35.4167C25.8333 34.9932 25.9597 34.5993 26.1767 34.2705L21.5056 26.3655C20.9 26.561 20.254 26.6667 19.5833 26.6667C18.6582 26.6667 17.7799 26.4657 16.9899 26.1049L13.2889 32.4977C13.8305 33.0272 14.1667 33.766 14.1667 34.5834C14.1667 36.1942 12.8608 37.5 11.25 37.5C9.63918 37.5 8.33334 36.1942 8.33334 34.5834C8.33334 32.9725 9.63918 31.6667 11.25 31.6667C11.4425 31.6667 11.6306 31.6853 11.8127 31.7209L15.579 25.2156C14.7701 24.5399 14.1346 23.6634 13.7491 22.6629L9.1492 23.2379C8.98931 24.6976 7.7523 25.8334 6.25001 25.8334C4.63918 25.8334 3.33334 24.5275 3.33334 22.9167C3.33334 21.3059 4.63918 20 6.25001 20C7.38528 20 8.36905 20.6486 8.85098 21.5955L13.3632 21.0315C13.3434 20.8292 13.3333 20.6241 13.3333 20.4167C13.3333 19.2587 13.6483 18.1742 14.1971 17.2443L9.54588 13.4652C8.98113 13.9048 8.27115 14.1667 7.50001 14.1667C5.65906 14.1667 4.16668 12.6743 4.16668 10.8334C4.16668 8.9924 5.65906 7.50002 7.50001 7.50002C9.34096 7.50002 10.8333 8.9924 10.8333 10.8334C10.8333 11.2993 10.7377 11.743 10.565 12.1458L15.2278 15.9343C16.1656 15.0228 17.3885 14.4032 18.75 14.2218V7.37924C17.5452 7.02068 16.6667 5.90461 16.6667 4.58335ZM19.5833 15.8334C17.052 15.8334 15 17.8854 15 20.4167C15 22.948 17.052 25 19.5833 25C22.1146 25 24.1667 22.948 24.1667 20.4167C24.1667 17.8854 22.1146 15.8334 19.5833 15.8334ZM20.8333 4.58335C20.8333 3.893 20.2737 3.33335 19.5833 3.33335C18.893 3.33335 18.3333 3.893 18.3333 4.58335C18.3333 5.27371 18.893 5.83335 19.5833 5.83335C20.2737 5.83335 20.8333 5.27371 20.8333 4.58335ZM28.3333 35.4167C28.3333 35.1866 28.1468 35 27.9167 35C27.6866 35 27.5 35.1866 27.5 35.4167C27.5 35.6468 27.6866 35.8334 27.9167 35.8334C28.1468 35.8334 28.3333 35.6468 28.3333 35.4167ZM6.25001 21.6667C6.94037 21.6667 7.50001 22.2263 7.50001 22.9167C7.50001 23.607 6.94037 24.1667 6.25001 24.1667C5.55965 24.1667 5.00001 23.607 5.00001 22.9167C5.00001 22.2263 5.55965 21.6667 6.25001 21.6667ZM9.16668 10.8334C9.16668 9.91288 8.42048 9.16669 7.50001 9.16669C6.57954 9.16669 5.83334 9.91288 5.83334 10.8334C5.83334 11.7538 6.57954 12.5 7.50001 12.5C8.42048 12.5 9.16668 11.7538 9.16668 10.8334ZM34.1667 10.4167C34.1667 9.26609 33.2339 8.33335 32.0833 8.33335C30.9328 8.33335 30 9.26609 30 10.4167C30 11.5673 30.9328 12.5 32.0833 12.5C33.2339 12.5 34.1667 11.5673 34.1667 10.4167ZM11.25 33.3334C11.9404 33.3334 12.5 33.893 12.5 34.5834C12.5 35.2737 11.9404 35.8334 11.25 35.8334C10.5597 35.8334 10 35.2737 10 34.5834C10 33.893 10.5597 33.3334 11.25 33.3334ZM36.6667 24.1667C36.6667 23.2462 35.9205 22.5 35 22.5C34.0795 22.5 33.3333 23.2462 33.3333 24.1667C33.3333 25.0872 34.0795 25.8334 35 25.8334C35.9205 25.8334 36.6667 25.0872 36.6667 24.1667Z" fill="#f5fcff"/>
</svg>
