<svg width="60" height="60" viewBox="0 0 60 60" fill="none" xmlns="http://www.w3.org/2000/svg">
<path d="M50.0274 36.379L36.1674 50.2358C35.5096 50.8889 34.6202 51.2555 33.6932 51.2555C32.7662 51.2555 31.8768 50.8889 31.219 50.2358L11.3874 30.4042C9.9079 28.755 9.04728 26.643 8.95264 24.4295L9.08843 12.8053C9.10549 11.8715 9.48446 10.9808 10.1454 10.321C10.8064 9.6612 11.6978 9.28382 12.6316 9.26842L24.2211 9.1579C26.4347 9.25766 28.5456 10.1201 30.1958 11.599L50.0274 31.4305C50.6805 32.0883 51.0471 32.9777 51.0471 33.9047C51.0471 34.8317 50.6805 35.7211 50.0274 36.379ZM18.3979 16.2095C18.3979 15.7148 18.2512 15.2313 17.9764 14.82C17.7016 14.4087 17.311 14.0881 16.854 13.8988C16.397 13.7095 15.8941 13.66 15.4089 13.7565C14.9238 13.853 14.4781 14.0912 14.1283 14.441C13.7786 14.7907 13.5404 15.2364 13.4439 15.7215C13.3473 16.2067 13.3969 16.7096 13.5862 17.1666C13.7755 17.6236 14.096 18.0142 14.5073 18.289C14.9186 18.5638 15.4022 18.7105 15.8968 18.7105C16.5602 18.7105 17.1963 18.447 17.6654 17.978C18.1344 17.5089 18.3979 16.8728 18.3979 16.2095ZM39.2211 39.4137C39.3838 39.2512 39.5128 39.0582 39.6009 38.8458C39.689 38.6334 39.7343 38.4057 39.7343 38.1758C39.7343 37.9458 39.689 37.7182 39.6009 37.5058C39.5128 37.2933 39.3838 37.1004 39.2211 36.9379L37.9547 35.6716C38.477 34.871 38.8513 33.9833 39.06 33.0505C39.2826 32.2187 39.2841 31.3432 39.0642 30.5107C38.8443 29.6782 38.4107 28.9176 37.8063 28.3042C36.9465 27.4478 35.8056 26.9318 34.5947 26.8516C33.7956 26.8 32.9937 26.8909 32.2263 27.12H32.22C31.5627 27.3271 30.9361 27.6213 30.3568 27.9947H30.3474C29.8478 28.3207 29.3842 28.6986 28.9642 29.1221C28.7114 29.376 28.4378 29.6084 28.1463 29.8168C27.8276 30.0448 27.4777 30.2256 27.1074 30.3537H27.1011C26.7573 30.4665 26.3939 30.5073 26.0337 30.4737H26.0274C25.6585 30.4441 25.3097 30.2931 25.0358 30.0442C24.8354 29.8181 24.6987 29.5428 24.6399 29.2464C24.581 28.9501 24.6022 28.6434 24.7011 28.3579C24.9221 27.5073 25.3695 26.7324 25.9958 26.1158C26.2224 25.9214 26.4654 25.7471 26.7221 25.5947L26.8168 25.5347C27.1385 25.3379 27.4792 25.174 27.8337 25.0453C28.162 24.9221 28.5094 24.858 28.86 24.8558C29.324 24.8558 29.769 24.6715 30.0971 24.3434C30.4252 24.0153 30.6095 23.5703 30.6095 23.1063C30.6095 22.6423 30.4252 22.1973 30.0971 21.8693C29.769 21.5412 29.324 21.3568 28.86 21.3568C28.0865 21.3599 27.3166 21.5011 26.5926 21.7737C26.0089 21.9888 25.449 22.264 24.9221 22.5947L24.8905 22.6137L23.6337 21.3505C23.4709 21.188 23.2777 21.0591 23.0651 20.9712C22.8525 20.8833 22.6247 20.8381 22.3947 20.8382C22.1646 20.8384 21.9369 20.8838 21.7244 20.972C21.5119 21.0602 21.3189 21.1893 21.1563 21.3521C20.9938 21.5149 20.8648 21.7081 20.7769 21.9207C20.689 22.1333 20.6439 22.3611 20.644 22.5911C20.6442 22.8212 20.6896 23.0489 20.7778 23.2614C20.866 23.4739 20.9951 23.6669 21.1579 23.8295L22.3832 25.0516C21.8725 25.8263 21.5016 26.6845 21.2874 27.5874C21.0587 28.4494 21.056 29.3558 21.2794 30.2193C21.5029 31.0827 21.945 31.874 22.5632 32.5168C23.4022 33.3385 24.4982 33.8469 25.6674 33.9568C26.5251 34.0448 27.3917 33.949 28.2095 33.6758C28.9126 33.4394 29.5767 33.0999 30.18 32.6684C30.628 32.3471 31.0484 31.989 31.4368 31.5979C31.6825 31.3512 31.9535 31.131 32.2453 30.9411C32.5603 30.7394 32.8999 30.5792 33.2558 30.4642C33.6125 30.3614 33.9843 30.3208 34.3547 30.3442C34.7211 30.3692 35.0663 30.525 35.3274 30.7832C35.4853 30.9379 35.8484 31.3042 35.6337 32.3242C35.4173 33.1963 34.9663 33.9924 34.3295 34.6263C34.0517 34.8777 33.7562 35.1089 33.4453 35.3179C33.1405 35.5149 32.8168 35.681 32.479 35.8137C32.1574 35.9375 31.811 35.983 31.4684 35.9463C31.2391 35.9297 31.0087 35.9585 30.7905 36.0309C30.5723 36.1033 30.3705 36.2181 30.1966 36.3685C30.0227 36.5189 29.8802 36.7021 29.7771 36.9076C29.674 37.1132 29.6124 37.337 29.5958 37.5663C29.5792 37.7956 29.608 38.026 29.6804 38.2442C29.7528 38.4624 29.8675 38.6643 30.018 38.8381C30.1684 39.012 30.3516 39.1546 30.5571 39.2577C30.7626 39.3608 30.9865 39.4224 31.2158 39.439C31.38 39.4516 31.5411 39.4547 31.6958 39.4547C32.4382 39.4627 33.1743 39.3187 33.859 39.0316C34.4217 38.8056 34.9584 38.5197 35.46 38.179L35.4916 38.1568L36.7453 39.4137C37.0737 39.7405 37.5182 39.924 37.9816 39.924C38.445 39.924 38.8895 39.7405 39.2179 39.4137H39.2211Z" fill="#080e24"/>
</svg>
