<svg width="60" height="60" viewBox="0 0 60 60" fill="none" xmlns="http://www.w3.org/2000/svg">
<path d="M56.5298 54.0017V26.8891C56.5298 25.474 55.3829 24.3268 53.9678 24.3268H41.801V16.9499C41.801 16.2532 41.4234 15.611 40.8153 15.2717L30.9363 9.76236C30.8819 9.73191 30.8256 9.70521 30.7691 9.68061V6.53661H36.0888C36.5132 6.53661 36.8574 6.19236 36.8574 5.76786V1.88496C36.8574 1.46046 36.5132 1.11621 36.0888 1.11621H30.7691V0.768811C30.7691 0.344311 30.4251 6.10352e-05 30.0005 6.10352e-05C29.5758 6.10352e-05 29.2319 0.344311 29.2319 0.768811V9.68061C29.1753 9.70536 29.1191 9.73206 29.0645 9.76236L19.1855 15.2719C18.5768 15.611 18.1995 16.2533 18.1995 16.9501V24.3268H6.03241C4.61731 24.3268 3.47041 25.474 3.47041 26.8891V54.0016C2.38186 54.4942 1.62421 55.589 1.62421 56.8612C1.62421 58.5949 3.02941 59.9999 4.76281 59.9999H55.2372C56.9706 59.9999 58.3758 58.5949 58.3758 56.8612C58.3757 55.589 57.6182 54.4942 56.5298 54.0017ZM46.6262 33.2575C46.6262 32.4332 47.2944 31.765 48.1193 31.765H50.91C51.7341 31.765 52.4025 32.4332 52.4025 33.2575V36.0485C52.4025 36.8728 51.7341 37.541 50.91 37.541H48.1194C47.2946 37.541 46.6263 36.8728 46.6263 36.0485V33.2575H46.6262ZM46.6262 42.2251C46.6262 41.4008 47.2944 40.7326 48.1193 40.7326H50.91C51.7341 40.7326 52.4025 41.4008 52.4025 42.2251V45.0158C52.4025 45.8401 51.7341 46.5083 50.91 46.5083H48.1194C47.2946 46.5083 46.6263 45.8401 46.6263 45.0158V42.2251H46.6262ZM37.659 33.2575C37.659 32.4332 38.327 31.765 39.1512 31.765H41.9423C42.7661 31.765 43.4346 32.4332 43.4346 33.2575V36.0485C43.4346 36.8728 42.7661 37.541 41.9423 37.541H39.1512C38.327 37.541 37.659 36.8728 37.659 36.0485V33.2575ZM37.659 42.2251C37.659 41.4008 38.327 40.7326 39.1512 40.7326H41.9423C42.7661 40.7326 43.4346 41.4008 43.4346 42.2251V45.0158C43.4346 45.8401 42.7661 46.5083 41.9423 46.5083H39.1512C38.327 46.5083 37.659 45.8401 37.659 45.0158V42.2251ZM30 16.9559C32.3349 16.9559 34.2278 18.8486 34.2278 21.1835C34.2278 23.5184 32.3351 25.411 30 25.411C27.6651 25.411 25.7724 23.5183 25.7724 21.1834C25.7724 18.8485 27.6651 16.9559 30 16.9559ZM25.7666 41.2255C25.7666 40.4012 26.4347 39.733 27.2595 39.733H32.7407C33.5651 39.733 34.2332 40.4012 34.2332 41.2255V52.984C34.2332 53.2531 34.1613 53.5052 34.0364 53.7233H25.9643C25.8393 53.5052 25.767 53.2531 25.767 52.984L25.7666 41.2255ZM16.5651 33.2575C16.5651 32.4332 17.2332 31.765 18.0575 31.765H20.8484C21.6726 31.765 22.3407 32.4332 22.3407 33.2575V36.0485C22.3407 36.8728 21.6726 37.541 20.8484 37.541H18.0575C17.2332 37.541 16.5651 36.8728 16.5651 36.0485V33.2575ZM16.5651 42.2251C16.5651 41.4008 17.2332 40.7326 18.0575 40.7326H20.8484C21.6726 40.7326 22.3407 41.4008 22.3407 42.2251V45.0158C22.3407 45.8401 21.6726 46.5083 20.8484 46.5083H18.0575C17.2332 46.5083 16.5651 45.8401 16.5651 45.0158V42.2251ZM7.59706 33.2575C7.59706 32.4332 8.26516 31.765 9.08986 31.765H11.8805C12.705 31.765 13.3733 32.4332 13.3733 33.2575V36.0485C13.3733 36.8728 12.705 37.541 11.8805 37.541H9.09001C8.26531 37.541 7.59721 36.8728 7.59721 36.0485L7.59706 33.2575ZM7.59706 42.2251C7.59706 41.4008 8.26516 40.7326 9.08986 40.7326H11.8805C12.705 40.7326 13.3733 41.4008 13.3733 42.2251V45.0158C13.3733 45.8401 12.705 46.5083 11.8805 46.5083H9.09001C8.26531 46.5083 7.59721 45.8401 7.59721 45.0158L7.59706 42.2251Z" fill="#080e24"/>
</svg>
