<svg width="60" height="60" viewBox="0 0 60 60" fill="none" xmlns="http://www.w3.org/2000/svg">
<path d="M30 43.125C29.6736 43.125 29.3529 43.0397 29.0695 42.8777L12.6563 33.4969C12.5136 33.4145 12.3518 33.3712 12.1872 33.3713C12.0225 33.3713 11.8607 33.4148 11.7182 33.4972C11.5756 33.5797 11.4573 33.6982 11.3751 33.8409C11.2929 33.9836 11.2498 34.1455 11.25 34.3102V43.125C11.2497 43.4597 11.339 43.7883 11.5086 44.0768C11.6782 44.3653 11.9219 44.6031 12.2145 44.7656L29.0895 54.1406C29.368 54.2954 29.6814 54.3766 30 54.3766C30.3186 54.3766 30.632 54.2954 30.9105 54.1406L47.7855 44.7656C48.0781 44.6031 48.3218 44.3653 48.4914 44.0768C48.661 43.7883 48.7503 43.4597 48.75 43.125V34.3102C48.7502 34.1455 48.7071 33.9836 48.6249 33.8409C48.5427 33.6982 48.4244 33.5797 48.2819 33.4972C48.1393 33.4148 47.9775 33.3713 47.8128 33.3713C47.6482 33.3712 47.4864 33.4145 47.3438 33.4969L30.9305 42.8777C30.6471 43.0397 30.3264 43.125 30 43.125Z" fill="#080e24"/>
<path d="M58.1157 22.3242C58.1157 22.3242 58.1157 22.3149 58.1157 22.3113C58.0853 22.0141 57.9844 21.7285 57.8214 21.4782C57.6583 21.2278 57.4378 21.0201 57.1782 20.8723L30.9282 5.87229C30.6448 5.71032 30.3241 5.62512 29.9977 5.62512C29.6713 5.62512 29.3506 5.71032 29.0672 5.87229L2.81722 20.8723C2.53033 21.0363 2.29188 21.2733 2.12605 21.5591C1.96021 21.8449 1.87286 22.1695 1.87286 22.5C1.87286 22.8305 1.96021 23.1551 2.12605 23.4409C2.29188 23.7268 2.53033 23.9637 2.81722 24.1278L29.0672 39.1278C29.3506 39.2897 29.6713 39.3749 29.9977 39.3749C30.3241 39.3749 30.6448 39.2897 30.9282 39.1278L54.0235 25.9313C54.0592 25.9107 54.0997 25.8998 54.1409 25.8999C54.1821 25.8999 54.2226 25.9108 54.2582 25.9315C54.2939 25.9522 54.3235 25.9819 54.344 26.0177C54.3645 26.0534 54.3752 26.094 54.375 26.1352V43.0723C54.375 44.0813 55.1508 44.9473 56.1598 44.9977C56.4133 45.0099 56.6667 44.9705 56.9045 44.8819C57.1424 44.7933 57.3597 44.6574 57.5435 44.4823C57.7272 44.3072 57.8735 44.0966 57.9735 43.8633C58.0735 43.63 58.125 43.3788 58.125 43.125V22.5C58.1249 22.4413 58.1218 22.3826 58.1157 22.3242Z" fill="#080e24"/>
</svg>
