<svg width="40" height="40" viewBox="0 0 40 40" fill="none" xmlns="http://www.w3.org/2000/svg">
<path fill-rule="evenodd" clip-rule="evenodd" d="M17.5 8.33333C17.5 6.95262 18.6193 5.83333 20 5.83333C21.3807 5.83333 22.5 6.95262 22.5 8.33333C22.5 9.71405 21.3807 10.8333 20 10.8333C18.6193 10.8333 17.5 9.71405 17.5 8.33333ZM20.8333 8.33333C20.8333 7.8731 20.4602 7.5 20 7.5C19.5398 7.5 19.1667 7.8731 19.1667 8.33333C19.1667 8.79357 19.5398 9.16667 20 9.16667C20.4602 9.16667 20.8333 8.79357 20.8333 8.33333Z" fill="#f5fcff"/>
<path d="M25.8333 11.6667C25.8333 11.2064 25.4602 10.8333 25 10.8333C24.5398 10.8333 24.1667 11.2064 24.1667 11.6667C24.1667 13.9679 22.3012 15.8333 20 15.8333C17.6988 15.8333 15.8333 13.9679 15.8333 11.6667C15.8333 11.2064 15.4602 10.8333 15 10.8333C14.5398 10.8333 14.1667 11.2064 14.1667 11.6667C14.1667 14.8883 16.7783 17.5 20 17.5C23.2217 17.5 25.8333 14.8883 25.8333 11.6667Z" fill="#f5fcff"/>
<path fill-rule="evenodd" clip-rule="evenodd" d="M10.8333 11.6667C10.8333 6.60406 14.9374 2.5 20 2.5C25.0626 2.5 29.1667 6.60406 29.1667 11.6667C29.1667 15.0886 27.274 18.1638 24.3431 19.7413L24.1658 19.8333L24.1667 23.3332C24.1667 23.4846 24.1255 23.6324 24.0484 23.7612L23.984 23.8539L22.7333 25.4158L23.984 26.9794C24.2272 27.2834 24.2252 27.7103 23.9919 28.0107L23.9226 28.0893L22.8458 29.1667L23.9226 30.2441C24.0528 30.3743 24.1355 30.5432 24.1594 30.7238L24.1667 30.8333V33.3333C24.1667 33.5956 24.0432 33.8426 23.8333 34L20.5 36.5C20.2037 36.7222 19.7963 36.7222 19.5 36.5L16.1667 34C15.9568 33.8426 15.8333 33.5956 15.8333 33.3334L15.8325 19.8325L15.6561 19.7408C12.7988 18.2027 10.9286 15.2411 10.8369 11.9226L10.8333 11.6667ZM27.5 11.6667C27.5 7.52453 24.1421 4.16667 20 4.16667C15.8579 4.16667 12.5 7.52453 12.5 11.6667C12.5 14.6766 14.2891 17.3583 17 18.5428C17.3035 18.6755 17.4996 18.9752 17.4996 19.3064L17.4992 32.9167L19.9992 34.7917L22.4992 32.9167V31.1783L21.0774 29.7559C20.777 29.4555 20.7539 28.9828 21.0081 28.6559L21.0774 28.5774L22.2158 27.4375L21.0159 25.9372C20.7946 25.6606 20.7745 25.278 20.9556 24.9821L21.0159 24.8961L22.5 23.0408L22.4995 19.3069C22.4995 19.0124 22.6545 18.7428 22.9021 18.5934L22.9992 18.5432C25.7105 17.3588 27.5 14.6769 27.5 11.6667Z" fill="#f5fcff"/>
<path fill-rule="evenodd" clip-rule="evenodd" d="M33.9221 20.5897C34.2485 20.7459 34.614 20.8333 35 20.8333C36.3807 20.8333 37.5 19.714 37.5 18.3333C37.5 16.9526 36.3807 15.8333 35 15.8333C33.6193 15.8333 32.5 16.9526 32.5 18.3333C32.5 18.7192 32.5874 19.0847 32.7436 19.411L30.4867 21.6667H26.6667L26.5695 21.6723C26.155 21.7204 25.8333 22.0726 25.8333 22.5C25.8333 22.9602 26.2064 23.3333 26.6667 23.3333H30.8333L30.9429 23.3261C31.1234 23.3022 31.2923 23.2195 31.4226 23.0893L33.9221 20.5897ZM35 17.5C35.4602 17.5 35.8333 17.8731 35.8333 18.3333C35.8333 18.7936 35.4602 19.1667 35 19.1667C34.5398 19.1667 34.1667 18.7936 34.1667 18.3333C34.1667 17.8731 34.5398 17.5 35 17.5Z" fill="#f5fcff"/>
<path fill-rule="evenodd" clip-rule="evenodd" d="M31.7717 25.8333C32.1417 24.3956 33.4468 23.3333 35 23.3333C36.8409 23.3333 38.3333 24.8257 38.3333 26.6667C38.3333 28.5076 36.8409 30 35 30C33.4468 30 32.1417 28.9377 31.7717 27.5H26.6667C26.2064 27.5 25.8333 27.1269 25.8333 26.6667C25.8333 26.2393 26.155 25.8871 26.5695 25.8389L26.6667 25.8333H31.7717ZM33.3333 26.6667C33.3333 27.5871 34.0795 28.3333 35 28.3333C35.9205 28.3333 36.6667 27.5871 36.6667 26.6667C36.6667 25.7462 35.9205 25 35 25C34.0795 25 33.3333 25.7462 33.3333 26.6667Z" fill="#f5fcff"/>
<path fill-rule="evenodd" clip-rule="evenodd" d="M35 31.6667C33.9072 31.6667 32.9782 32.3678 32.6382 33.3448C32.5933 33.3372 32.5471 33.3333 32.5 33.3333H30.3458L27.2559 30.2441L27.1774 30.1748C26.8505 29.9206 26.3778 29.9437 26.0774 30.2441C25.752 30.5695 25.752 31.0972 26.0774 31.4226L29.4107 34.7559L29.4933 34.8283C29.6379 34.939 29.8158 35 30 35H32.5L32.5972 34.9944C32.611 34.9928 32.6247 34.9908 32.6382 34.9886C32.9782 35.9655 33.9072 36.6667 35 36.6667C36.3807 36.6667 37.5 35.5474 37.5 34.1667C37.5 32.786 36.3807 31.6667 35 31.6667ZM35 33.3333C35.4602 33.3333 35.8333 33.7064 35.8333 34.1667C35.8333 34.6269 35.4602 35 35 35C34.5398 35 34.1667 34.6269 34.1667 34.1667C34.1667 33.7064 34.5398 33.3333 35 33.3333Z" fill="#f5fcff"/>
<path fill-rule="evenodd" clip-rule="evenodd" d="M7.25642 33.9223L9.51332 31.6667H13.3333L13.4305 31.6611C13.845 31.6129 14.1667 31.2607 14.1667 30.8333C14.1667 30.3731 13.7936 30 13.3333 30H9.16666L9.05712 30.0072C8.87654 30.0312 8.70764 30.1138 8.5774 30.2441L6.07784 32.7436C5.75147 32.5875 5.38595 32.5 4.99999 32.5C3.61928 32.5 2.49999 33.6193 2.49999 35C2.49999 36.3807 3.61928 37.5 4.99999 37.5C6.3807 37.5 7.49999 36.3807 7.49999 35C7.49999 34.6141 7.41256 34.2486 7.25642 33.9223ZM4.99999 35.8333C4.53975 35.8333 4.16666 35.4602 4.16666 35C4.16666 34.5398 4.53975 34.1667 4.99999 34.1667C5.46023 34.1667 5.83332 34.5398 5.83332 35C5.83332 35.4602 5.46023 35.8333 4.99999 35.8333Z" fill="#f5fcff"/>
<path fill-rule="evenodd" clip-rule="evenodd" d="M8.22831 27.5C7.85827 28.9377 6.55319 30 4.99999 30C3.15904 30 1.66666 28.5076 1.66666 26.6667C1.66666 24.8257 3.15904 23.3333 4.99999 23.3333C6.55319 23.3333 7.85827 24.3956 8.22831 25.8333H13.3333C13.7936 25.8333 14.1667 26.2064 14.1667 26.6667C14.1667 27.094 13.845 27.4463 13.4305 27.4944L13.3333 27.5H8.22831ZM3.33332 26.6667C3.33332 27.5871 4.07952 28.3333 4.99999 28.3333C5.92046 28.3333 6.66666 27.5871 6.66666 26.6667C6.66666 25.7462 5.92046 25 4.99999 25C4.07952 25 3.33332 25.7462 3.33332 26.6667Z" fill="#f5fcff"/>
<path fill-rule="evenodd" clip-rule="evenodd" d="M4.99999 21.6667C6.09277 21.6667 7.02179 20.9655 7.36174 19.9886C7.40671 19.9961 7.45289 20 7.49999 20H9.65416L12.7441 23.0893L12.8226 23.1586C13.1495 23.4128 13.6222 23.3897 13.9226 23.0893C14.248 22.7638 14.248 22.2362 13.9226 21.9107L10.5892 18.5774L10.5067 18.5051C10.3621 18.3943 10.1842 18.3333 9.99999 18.3333H7.49999L7.40281 18.3389C7.38901 18.3405 7.37532 18.3425 7.36174 18.3448C7.02179 17.3678 6.09277 16.6667 4.99999 16.6667C3.61928 16.6667 2.49999 17.786 2.49999 19.1667C2.49999 20.5474 3.61928 21.6667 4.99999 21.6667ZM4.99999 20C4.53975 20 4.16666 19.6269 4.16666 19.1667C4.16666 18.7064 4.53975 18.3333 4.99999 18.3333C5.46023 18.3333 5.83332 18.7064 5.83332 19.1667C5.83332 19.6269 5.46023 20 4.99999 20Z" fill="#f5fcff"/>
</svg>
