<svg width="40" height="40" viewBox="0 0 40 40" fill="none" xmlns="http://www.w3.org/2000/svg">
<path fill-rule="evenodd" clip-rule="evenodd" d="M20 1.66669C18.6525 1.66669 17.5541 2.73269 17.5019 4.06736L10.9022 7.36724C10.4525 6.93348 9.84075 6.66669 9.16666 6.66669C7.78594 6.66669 6.66666 7.78598 6.66666 9.16669C6.66666 9.62673 6.79092 10.0577 7.0077 10.428L4.02843 17.5038C2.71201 17.5755 1.66666 18.6657 1.66666 20C1.66666 21.3432 2.726 22.4391 4.0548 22.4976L7.24551 29.2335C6.88409 29.667 6.66666 30.2248 6.66666 30.8334C6.66666 32.2141 7.78594 33.3334 9.16666 33.3334C9.84471 33.3334 10.4597 33.0634 10.9101 32.6251L17.5014 35.7474C17.5005 35.7759 17.5 35.8046 17.5 35.8334C17.5 37.2141 18.6193 38.3334 20 38.3334C21.2731 38.3334 22.324 37.3817 22.48 36.1509L29.3924 32.8766C29.7997 33.1643 30.2968 33.3334 30.8333 33.3334C32.214 33.3334 33.3333 32.2141 33.3333 30.8334C33.3333 30.3733 33.2091 29.9423 32.9923 29.572L35.9716 22.4963C37.288 22.4245 38.3333 21.3344 38.3333 20C38.3333 18.6617 37.2816 17.5689 35.9596 17.5032L32.8878 10.5916C33.1687 10.1873 33.3333 9.69623 33.3333 9.16669C33.3333 7.78598 32.214 6.66669 30.8333 6.66669C30.2248 6.66669 29.667 6.88412 29.2335 7.24554L22.4975 4.05483C22.439 2.72603 21.3432 1.66669 20 1.66669ZM22.002 5.66429L28.3796 8.68528C28.3492 8.84106 28.3333 9.00201 28.3333 9.16669C28.3333 9.29518 28.343 9.42141 28.3617 9.54468L21.9625 11.7844C21.6727 11.4178 21.2825 11.1344 20.8333 10.9756V6.52443C21.3032 6.35834 21.7087 6.05574 22.002 5.66429ZM19.1667 6.52443C18.7021 6.36024 18.3006 6.06264 18.0081 5.67766L11.6478 8.85783C11.6602 8.95903 11.6667 9.06211 11.6667 9.16669L11.6666 9.1858L18.0681 11.7464C18.3545 11.3982 18.7331 11.1288 19.1667 10.9756V6.52443ZM31.5016 11.5764L34.3507 17.9869C33.952 18.281 33.6438 18.6908 33.4756 19.1667H29.0244C28.8712 18.7332 28.6018 18.3545 28.2536 18.0682L30.8142 11.6666L30.8333 11.6667C31.0648 11.6667 31.2889 11.6352 31.5016 11.5764ZM29.0244 20.8334C28.8712 21.2669 28.6018 21.6455 28.2536 21.9319L30.8142 28.3334L30.8333 28.3334C31.1187 28.3334 31.3928 28.3812 31.6483 28.4692L34.3628 22.022C33.9582 21.7273 33.6455 21.3141 33.4756 20.8334H29.0244ZM18.1133 34.193C18.3938 33.8707 18.7556 33.6209 19.1667 33.4756V29.0244C18.7331 28.8712 18.3545 28.6018 18.0681 28.2536L11.6666 30.8142L11.6667 30.8334C11.6667 30.9341 11.6607 31.0334 11.6491 31.131L18.1133 34.193ZM22.1051 34.4843C21.8075 34.0209 21.3611 33.6621 20.8333 33.4756V29.0244C21.2668 28.8712 21.6455 28.6018 21.9318 28.2536L28.3334 30.8142L28.3333 30.8334C28.3333 31.0615 28.3639 31.2825 28.4211 31.4925L22.1051 34.4843ZM5.63714 17.978L8.35172 11.5309C8.60716 11.6189 8.88132 11.6667 9.16666 11.6667C9.30085 11.6667 9.43257 11.6561 9.56103 11.6358L11.8904 17.9582C11.4724 18.2541 11.1493 18.6751 10.9756 19.1667H6.5244C6.35449 18.686 6.04174 18.2727 5.63714 17.978ZM6.5244 20.8334C6.35831 21.3033 6.05571 21.7087 5.66426 22.002L8.68525 28.3797C8.84103 28.3493 9.00198 28.3334 9.16666 28.3334C9.29515 28.3334 9.42138 28.3431 9.54465 28.3617L11.7844 21.9625C11.4178 21.6728 11.1343 21.2825 10.9756 20.8334H6.5244ZM17.5001 26.6858L11.0985 29.2464C11.0759 29.219 11.0528 29.192 11.0291 29.1656L13.3621 22.4999C13.7375 22.4956 14.0929 22.4087 14.4112 22.2564L17.7436 25.5888C17.5875 25.9152 17.5 26.2807 17.5 26.6667L17.5001 26.6858ZM15.8333 20C15.8333 20.386 15.7459 20.7515 15.5897 21.0779L18.9221 24.4103C19.2485 24.2541 19.614 24.1667 20 24.1667C20.3859 24.1667 20.7515 24.2541 21.0778 24.4103L24.4103 21.0779C24.2541 20.7515 24.1667 20.386 24.1667 20C24.1667 19.6141 24.2541 19.2485 24.4103 18.9222L21.0778 15.5897C20.7515 15.7459 20.3859 15.8334 20 15.8334C19.614 15.8334 19.2485 15.7459 18.9221 15.5897L15.5897 18.9222C15.7459 19.2485 15.8333 19.6141 15.8333 20ZM22.2563 25.5888C22.4125 25.9152 22.5 26.2807 22.5 26.6667L22.4999 26.6858L28.9015 29.2464C29.005 29.1206 29.1205 29.005 29.2464 28.9015L26.6858 22.4999L26.6667 22.5C26.2807 22.5 25.9152 22.4126 25.5888 22.2564L22.2563 25.5888ZM25.5888 17.7437L22.2563 14.4112C22.4086 14.093 22.4956 13.7375 22.4998 13.3621L29.1656 11.0291C29.192 11.0528 29.219 11.076 29.2464 11.0985L26.6858 17.5001L26.6667 17.5C26.2807 17.5 25.9152 17.5875 25.5888 17.7437ZM17.7436 14.4112C17.5875 14.0848 17.5 13.7193 17.5 13.3334L17.5001 13.3142L11.0985 10.7536C11.0788 10.7775 11.0587 10.8011 11.0382 10.8242L13.4997 17.5055C13.8244 17.5268 14.1321 17.6101 14.4112 17.7437L17.7436 14.4112ZM20 3.33335C20.4602 3.33335 20.8333 3.70645 20.8333 4.16669C20.8333 4.62692 20.4602 5.00002 20 5.00002C19.5398 5.00002 19.1667 4.62692 19.1667 4.16669C19.1667 3.70645 19.5398 3.33335 20 3.33335ZM20 35C20.4602 35 20.8333 35.3731 20.8333 35.8334C20.8333 36.2936 20.4602 36.6667 20 36.6667C19.5398 36.6667 19.1667 36.2936 19.1667 35.8334C19.1667 35.3731 19.5398 35 20 35ZM36.6667 20C36.6667 19.5398 36.2936 19.1667 35.8333 19.1667C35.3731 19.1667 35 19.5398 35 20C35 20.4603 35.3731 20.8334 35.8333 20.8334C36.2936 20.8334 36.6667 20.4603 36.6667 20ZM4.16666 19.1667C4.62689 19.1667 4.99999 19.5398 4.99999 20C4.99999 20.4603 4.62689 20.8334 4.16666 20.8334C3.70642 20.8334 3.33332 20.4603 3.33332 20C3.33332 19.5398 3.70642 19.1667 4.16666 19.1667ZM9.99999 9.16669C9.99999 8.70645 9.62689 8.33335 9.16666 8.33335C8.70642 8.33335 8.33332 8.70645 8.33332 9.16669C8.33332 9.62692 8.70642 10 9.16666 10C9.62689 10 9.99999 9.62692 9.99999 9.16669ZM30.8333 8.33335C31.2936 8.33335 31.6667 8.70645 31.6667 9.16669C31.6667 9.62692 31.2936 10 30.8333 10C30.3731 10 30 9.62692 30 9.16669C30 8.70645 30.3731 8.33335 30.8333 8.33335ZM31.6667 30.8334C31.6667 30.3731 31.2936 30 30.8333 30C30.3731 30 30 30.3731 30 30.8334C30 31.2936 30.3731 31.6667 30.8333 31.6667C31.2936 31.6667 31.6667 31.2936 31.6667 30.8334ZM9.16666 30C9.62689 30 9.99999 30.3731 9.99999 30.8334C9.99999 31.2936 9.62689 31.6667 9.16666 31.6667C8.70642 31.6667 8.33332 31.2936 8.33332 30.8334C8.33332 30.3731 8.70642 30 9.16666 30ZM14.1667 20C14.1667 19.5398 13.7936 19.1667 13.3333 19.1667C12.8731 19.1667 12.5 19.5398 12.5 20C12.5 20.4603 12.8731 20.8334 13.3333 20.8334C13.7936 20.8334 14.1667 20.4603 14.1667 20ZM26.6667 19.1667C27.1269 19.1667 27.5 19.5398 27.5 20C27.5 20.4603 27.1269 20.8334 26.6667 20.8334C26.2064 20.8334 25.8333 20.4603 25.8333 20C25.8333 19.5398 26.2064 19.1667 26.6667 19.1667ZM20.8333 13.3334C20.8333 12.8731 20.4602 12.5 20 12.5C19.5398 12.5 19.1667 12.8731 19.1667 13.3334C19.1667 13.7936 19.5398 14.1667 20 14.1667C20.4602 14.1667 20.8333 13.7936 20.8333 13.3334ZM20 25.8334C20.4602 25.8334 20.8333 26.2065 20.8333 26.6667C20.8333 27.1269 20.4602 27.5 20 27.5C19.5398 27.5 19.1667 27.1269 19.1667 26.6667C19.1667 26.2065 19.5398 25.8334 20 25.8334Z" fill="#f5fcff"/>
</svg>
