<svg width="40" height="40" viewBox="0 0 40 40" fill="none" xmlns="http://www.w3.org/2000/svg">
<g clip-path="url(#clip0_2002_2)">
<path fill-rule="evenodd" clip-rule="evenodd" d="M29.1667 36.6667C29.6269 36.6667 30 37.0398 30 37.5C30 37.9274 29.6783 38.2796 29.2639 38.3277L29.1667 38.3333H10.8333C10.3731 38.3333 10 37.9603 10 37.5C10 37.0726 10.3217 36.7204 10.7362 36.6723L10.8333 36.6667H29.1667ZM20.0033 1.66669C23.8425 1.67717 30.183 10.8173 29.5638 13.9134L29.5419 14.0229L29.272 14.5596C28.9619 15.1707 28.6563 15.7534 28.3552 16.3077L32.2422 18.8061L32.4545 18.9493C33.4286 19.6377 34.1702 20.6097 34.5759 21.7358C37.044 28.5868 37.9597 32.3571 37.2852 33.706C36.598 35.0804 35.0102 36.0331 32.5753 36.6418C32.1288 36.7534 31.6763 36.482 31.5647 36.0355C31.4531 35.589 31.7246 35.1365 32.1711 35.0249C34.1806 34.5225 35.3705 33.8085 35.7945 32.9607C35.9163 32.7171 35.8528 31.8034 35.5328 30.3735L35.4291 29.9292C35.0407 28.3299 34.3855 26.2133 33.4642 23.5843L33.0078 22.3007C32.6974 21.4389 32.1115 20.7034 31.341 20.2081L27.537 17.7633C26.5797 19.4049 25.6694 20.7444 24.8035 21.7835C24.5089 22.1371 23.9834 22.1848 23.6298 21.8902C23.2763 21.5956 23.2285 21.0701 23.5232 20.7165L23.699 20.5018C24.9358 18.9658 26.3019 16.73 27.7882 13.8005L27.9443 13.4908L27.9518 13.3738C28.0101 10.9694 22.6306 3.33335 19.9967 3.33335L19.9981 3.33252L19.8652 3.33875C17.0396 3.56094 11.8422 10.5798 12.0573 13.079L12.0592 13.0975L12.2026 13.4056C13.6996 16.6008 15.074 18.9753 16.3127 20.5198L16.4735 20.7165C16.7682 21.0701 16.7204 21.5956 16.3668 21.8902C16.0133 22.1848 15.4878 22.1371 15.1932 21.7835C14.3341 20.7527 13.4337 19.3809 12.4884 17.6658L8.5322 20.2081C7.76165 20.7034 7.17581 21.4389 6.86532 22.3007L6.409 23.5843C5.48767 26.2133 4.83248 28.3299 4.44408 29.9292L4.34032 30.3735C4.02035 31.8034 3.95691 32.7171 4.07869 32.9607C4.50263 33.8085 5.6926 34.5225 7.70212 35.0249C8.14861 35.1365 8.42008 35.589 8.30846 36.0355C8.19683 36.482 7.74439 36.7534 7.29789 36.6418C4.86297 36.0331 3.27516 35.0804 2.58798 33.706C1.91352 32.3571 2.82918 28.5868 5.29731 21.7358C5.70301 20.6097 6.44452 19.6377 7.41867 18.9493L7.63094 18.8061L11.7052 16.1864C11.3742 15.5372 11.0379 14.8479 10.6961 14.1185L10.4464 13.5808L10.428 13.4703C9.86271 10.0785 16.0714 1.67613 19.9934 1.66669L20.0033 1.66669ZM28.3333 23.3333C29.2538 23.3333 30 24.0795 30 25V34.1667C30 35.0872 29.2538 35.8333 28.3333 35.8333H11.6667C10.7462 35.8333 10 35.0872 10 34.1667V25C10 24.0795 10.7462 23.3333 11.6667 23.3333H28.3333ZM28.3333 25H11.6667V34.1667H28.3333V25ZM20 28.3333C20.9205 28.3333 21.6667 29.0795 21.6667 30C21.6667 30.9205 20.9205 31.6667 20 31.6667C19.0795 31.6667 18.3333 30.9205 18.3333 30C18.3333 29.0795 19.0795 28.3333 20 28.3333ZM21.666 9.90769L21.8634 10L26.206 12.1713C26.6177 12.3771 26.7845 12.8777 26.5787 13.2894C26.3876 13.6716 25.9423 13.8428 25.5501 13.7005L25.4607 13.662L25.1247 13.4942L25.0365 13.7487C23.371 18.4764 21.8163 20.8333 20 20.8333C18.1515 20.8333 16.574 18.3921 14.8748 13.4951L14.5393 13.662C14.1277 13.8679 13.6271 13.701 13.4213 13.2894C13.2302 12.9071 13.3604 12.4482 13.7096 12.2198L13.794 12.1713L18.1366 10C19.2445 9.44608 20.5376 9.41531 21.666 9.90769ZM19.0465 11.4158L18.882 11.4907L16.3789 12.7417L16.4162 12.8515C17.8729 17.0568 19.1987 19.1667 20 19.1667C20.8082 19.1667 22.1499 17.0204 23.6213 12.7429L21.118 11.4907C20.4684 11.1659 19.7125 11.1409 19.0465 11.4158Z" fill="#f5fcff"/>
</g>
<defs>
<clipPath id="clip0_2002_2">
<rect width="40" height="40" fill="white"/>
</clipPath>
</defs>
</svg>
