<svg width="40" height="40" viewBox="0 0 40 40" fill="none" xmlns="http://www.w3.org/2000/svg">
<path d="M20.8333 29.1667C20.8333 29.6269 20.4602 30 20 30C19.5398 30 19.1667 29.6269 19.1667 29.1667C19.1667 28.7064 19.5398 28.3333 20 28.3333C20.4602 28.3333 20.8333 28.7064 20.8333 29.1667Z" fill="#f5fcff"/>
<path fill-rule="evenodd" clip-rule="evenodd" d="M14.6273 12.588L19.1667 10.3183V6.66667C19.1667 6.20643 19.5398 5.83333 20 5.83333C20.4274 5.83333 20.7796 6.15503 20.8277 6.56948L20.8333 6.66667V10.3183L25.3727 12.588C25.6798 12.7415 25.8333 13.0374 25.8333 13.3333V18.7319C25.8336 18.7436 25.8336 18.7552 25.8333 18.7668V19.1545L28.401 20.9886C28.7755 21.2561 28.8623 21.7765 28.5948 22.151C28.3479 22.4967 27.8854 22.5972 27.5211 22.4003L27.4323 22.3448L24.5156 20.2614C24.4265 20.1977 24.3536 20.1197 24.298 20.0327L20.3727 21.9954C20.1716 22.0959 19.94 22.1103 19.7302 22.0384L19.6273 21.9954L15.7021 20.0327C15.6644 20.0916 15.6188 20.1464 15.5657 20.1954L15.4844 20.2614L12.5677 22.3448C12.1932 22.6123 11.6727 22.5255 11.4052 22.151C11.1583 21.8053 11.2132 21.3353 11.5177 21.0546L11.599 20.9886L14.1667 19.1545V18.7668C14.1664 18.7552 14.1664 18.7436 14.1667 18.7319V13.3333C14.1667 13.0374 14.3202 12.7415 14.6273 12.588ZM24.1667 14.6817L20.8333 16.3484V19.901L24.1667 18.2349V14.6817ZM19.1667 19.901L15.8333 18.2349V14.6817L19.1667 16.3484V19.901ZM20 11.765L23.1358 13.3333L20 14.9008L16.8633 13.3333L20 11.765Z" fill="#f5fcff"/>
<path fill-rule="evenodd" clip-rule="evenodd" d="M38.3333 4.16667C38.3333 3.24619 37.5871 2.5 36.6667 2.5H3.33334C2.41286 2.5 1.66667 3.24619 1.66667 4.16667V31.6667C1.66667 32.5871 2.41286 33.3333 3.33334 33.3333H15.8333V36.6667H10.8333C10.3731 36.6667 10 37.0398 10 37.5C10 37.9602 10.3731 38.3333 10.8333 38.3333H29.1667C29.6269 38.3333 30 37.9602 30 37.5C30 37.0398 29.6269 36.6667 29.1667 36.6667H24.1667V33.3333H36.6667C37.5871 33.3333 38.3333 32.5871 38.3333 31.6667V4.16667ZM22.5 33.3333V36.6667H17.5V33.3333H22.5ZM36.6667 31.6667V26.6667H3.33334V31.6667H36.6667ZM3.33334 25H36.6667V4.16667H3.33334V25Z" fill="#f5fcff"/>
</svg>
